<?xml version="1.0" encoding="UTF-8"?>
<!DOCTYPE svg PUBLIC "-//W3C//DTD SVG 1.1//EN" "http://www.w3.org/Graphics/SVG/1.1/DTD/svg11.dtd">
<!-- Creator: CorelDRAW X7 -->
<svg xmlns="http://www.w3.org/2000/svg" xml:space="preserve" width="210mm" height="297mm" version="1.1" style="shape-rendering:geometricPrecision; text-rendering:geometricPrecision; image-rendering:optimizeQuality; fill-rule:evenodd; clip-rule:evenodd"
viewBox="0 0 21000 29700"
 xmlns:xlink="http://www.w3.org/1999/xlink">
 <defs>
  <style type="text/css">
   <![CDATA[
    .fil1 {fill:none}
    .fil0 {fill:#87D5F7}
   ]]>
  </style>
   <clipPath id="id0">
    <path d="M3150 7628l14700 0 0 14444 -14700 0 0 -14444z"/>
   </clipPath>
 </defs>
 <g id="Layer_x0020_1">
  <metadata id="CorelCorpID_0Corel-Layer"/>
  <g>
  </g>
  <g style="clip-path:url(#id0)">
   <g>
    <g id="_2597789134384">
     <g>
      <g>
       <g>
        <path class="fil0" d="M17525 12872c-107,-88 -1061,-868 -1731,-868 -396,0 -701,246 -972,466 -211,168 -409,329 -592,329 -164,0 -353,-155 -554,-320 -272,-222 -579,-475 -982,-475 -399,0 -698,250 -963,469 -204,171 -393,329 -573,329 -186,0 -384,-161 -594,-335 -262,-217 -561,-460 -942,-460 -396,0 -701,247 -972,466 -211,168 -409,329 -592,329 -179,0 -371,-161 -573,-329 -265,-219 -563,-469 -963,-469 -399,0 -698,250 -963,469 -204,171 -393,329 -573,329 -323,0 -996,-427 -1371,-728 -131,-107 -323,-86 -430,45 -107,131 -85,323 46,430 109,89 1088,866 1755,866 400,0 698,-250 963,-470 205,-170 394,-329 573,-329 180,0 372,162 573,329 266,220 564,470 963,470 397,0 701,-247 973,-467 210,-167 408,-329 591,-329 165,0 354,156 555,320 271,223 579,476 981,476 399,0 698,-250 963,-470 204,-170 393,-329 573,-329 186,0 384,162 595,335 262,217 560,461 941,461 397,0 701,-247 973,-467 210,-167 408,-329 591,-329 320,0 975,424 1338,726 58,45 125,70 195,70l0 0c88,0 174,-37 238,-110 106,-131 88,-323 -40,-430z"/>
        <path class="fil0" d="M3231 10187c109,88 1088,866 1755,866 400,0 698,-250 963,-470 205,-170 394,-329 573,-329 180,0 372,162 573,329 266,220 564,470 964,470 396,0 701,-247 972,-467 210,-167 408,-329 591,-329 165,0 354,156 555,320 271,223 579,476 981,476 399,0 698,-250 963,-470 204,-170 393,-329 573,-329 186,0 384,162 595,335 262,217 560,461 941,461 397,0 701,-247 973,-467 210,-167 408,-329 591,-329 320,0 975,424 1338,726 58,45 125,70 195,70l0 0c88,0 174,-37 238,-110 106,-131 88,-323 -40,-430 -107,-91 -1061,-868 -1731,-868 -396,0 -701,246 -972,466 -211,167 -409,329 -592,329 -164,0 -353,-155 -554,-320 -272,-223 -579,-475 -982,-475 -399,0 -698,249 -963,469 -204,171 -393,329 -573,329 -186,0 -384,-161 -594,-335 -262,-217 -561,-460 -942,-460 -396,0 -701,246 -972,466 -211,168 -409,329 -592,329 -179,0 -371,-161 -573,-329 -265,-220 -563,-469 -963,-469 -399,0 -698,249 -963,469 -204,171 -393,329 -573,329 -323,0 -996,-427 -1371,-728 -131,-107 -323,-86 -430,45 -107,131 -85,323 46,430z"/>
        <path class="fil0" d="M17525 17593c-107,-88 -1061,-868 -1731,-868 -396,0 -701,247 -972,466 -211,168 -409,329 -592,329 -164,0 -353,-155 -554,-320 -272,-222 -579,-475 -982,-475 -399,0 -698,250 -963,469 -204,171 -393,329 -573,329 -186,0 -384,-161 -594,-335 -262,-216 -561,-460 -942,-460 -396,0 -701,247 -972,466 -211,168 -409,329 -592,329 -179,0 -371,-161 -573,-329 -265,-219 -563,-469 -963,-469 -399,0 -698,250 -963,469 -204,171 -393,329 -573,329 -323,0 -996,-426 -1371,-728 -131,-107 -323,-86 -430,45 -107,132 -85,324 46,430 109,89 1088,866 1755,866 400,0 698,-250 963,-470 205,-170 394,-329 573,-329 180,0 372,162 573,329 266,220 564,470 963,470 397,0 701,-247 973,-467 210,-167 408,-329 591,-329 165,0 354,156 555,320 271,223 579,476 981,476 399,0 698,-250 963,-470 204,-170 393,-329 573,-329 186,0 384,162 595,336 262,216 560,460 941,460 397,0 701,-247 973,-467 210,-167 408,-329 591,-329 320,0 975,424 1338,726 58,45 125,70 195,70l0 0c88,0 174,-37 238,-110 106,-131 88,-323 -40,-430z"/>
        <path class="fil0" d="M17525 15234c-107,-88 -1061,-868 -1731,-868 -396,0 -701,247 -972,466 -211,168 -409,329 -592,329 -164,0 -353,-155 -554,-320 -272,-222 -579,-475 -982,-475 -399,0 -698,250 -963,469 -204,171 -393,329 -573,329 -186,0 -384,-161 -594,-335 -262,-216 -561,-460 -942,-460 -396,0 -701,247 -972,466 -211,168 -409,329 -592,329 -179,0 -371,-161 -573,-329 -265,-219 -563,-469 -963,-469 -399,0 -698,250 -963,469 -204,171 -393,329 -573,329 -323,0 -996,-427 -1371,-728 -131,-107 -323,-86 -430,45 -107,132 -85,324 46,430 109,89 1088,866 1755,866 400,0 698,-250 963,-470 205,-170 394,-329 573,-329 180,0 372,162 573,329 266,220 564,470 963,470 397,0 701,-247 973,-467 210,-167 408,-329 591,-329 165,0 354,156 555,320 271,223 579,476 981,476 399,0 698,-250 963,-470 204,-170 393,-329 573,-329 186,0 384,162 595,336 262,216 560,460 941,460 397,0 701,-247 973,-467 210,-167 408,-329 591,-329 320,0 975,424 1338,726 58,45 125,70 195,70l0 0c88,0 174,-40 238,-110 106,-131 88,-323 -40,-430z"/>
        <path class="fil0" d="M17525 19955c-107,-91 -1061,-868 -1731,-868 -396,0 -701,247 -972,466 -211,168 -409,329 -592,329 -164,0 -353,-155 -554,-320 -272,-222 -579,-475 -982,-475 -399,0 -698,250 -963,469 -204,171 -393,329 -573,329 -186,0 -384,-161 -594,-335 -262,-216 -561,-460 -942,-460 -396,0 -701,247 -972,466 -211,168 -409,329 -592,329 -179,0 -371,-161 -573,-329 -265,-219 -563,-469 -963,-469 -399,0 -698,250 -963,469 -204,171 -393,329 -573,329 -323,0 -996,-426 -1371,-728 -131,-107 -323,-86 -430,46 -107,131 -85,323 46,429 109,89 1088,866 1755,866 400,0 698,-250 963,-469 205,-171 394,-330 573,-330 180,0 372,162 573,330 266,219 564,469 963,469 397,0 701,-247 973,-466 210,-168 408,-330 591,-330 165,0 354,156 555,320 271,223 579,476 981,476 399,0 698,-250 963,-469 204,-171 393,-330 573,-330 186,0 384,162 595,336 262,216 560,460 941,460 397,0 701,-247 973,-466 210,-168 408,-330 591,-330 320,0 975,424 1338,726 58,45 125,70 195,70l0 0c88,0 174,-37 238,-110 106,-131 88,-323 -40,-430z"/>
       </g>
      </g>
     </g>
     <g>
     </g>
     <g>
     </g>
     <g>
     </g>
     <g>
     </g>
     <g>
     </g>
     <g>
     </g>
     <g>
     </g>
     <g>
     </g>
     <g>
     </g>
     <g>
     </g>
     <g>
     </g>
     <g>
     </g>
     <g>
     </g>
     <g>
     </g>
     <g>
     </g>
    </g>
   </g>
  </g>
  <polygon class="fil1" points="3150,7628 17850,7628 17850,22072 3150,22072 "/>
 </g>
</svg>
