<?xml version="1.0" encoding="UTF-8"?>
<!DOCTYPE svg PUBLIC "-//W3C//DTD SVG 1.1//EN" "http://www.w3.org/Graphics/SVG/1.1/DTD/svg11.dtd">
<!-- Creator: CorelDRAW X7 -->
<svg xmlns="http://www.w3.org/2000/svg" xml:space="preserve" width="210mm" height="297mm" version="1.1" style="shape-rendering:geometricPrecision; text-rendering:geometricPrecision; image-rendering:optimizeQuality; fill-rule:evenodd; clip-rule:evenodd"
viewBox="0 0 21000 29700"
 xmlns:xlink="http://www.w3.org/1999/xlink"
 enable-background="new 0 0 512 512">
 <defs>
  <style type="text/css">
   <![CDATA[
    .str0 {stroke:#FEFEFE;stroke-width:7.62}
    .fil3 {fill:none}
    .fil1 {fill:#B5DBFF}
    .fil0 {fill:#D5E8FE}
    .fil2 {fill:#EDF5FF}
   ]]>
  </style>
   <clipPath id="id0">
    <path d="M3298 7774l14404 0 0 14152 -14404 0 0 -14152z"/>
   </clipPath>
 </defs>
 <g id="Layer_x0020_1">
  <metadata id="CorelCorpID_0Corel-Layer"/>
  <g>
  </g>
  <g style="clip-path:url(#id0)">
   <g>
    <g id="_2597791568608">
     <g>
      <g>
       <g id="Fog_8_">
        <g>
         <g>
          <g>
           <path class="fil0 str0" d="M16041 18132l-253 777 -392 -131c-9,0 -1177,-384 -2322,-384 -1144,0 -2313,384 -2321,384 -8,0 -57,16 -131,41 -351,106 -1389,392 -2452,392 -1275,0 -2526,-408 -2583,-433l-384 -123 253 -776 393 131c8,0 1177,384 2321,384 1144,0 2313,-384 2321,-384 8,0 57,-17 131,-41 352,-106 1390,-392 2452,-392 1275,0 2526,408 2583,433l384 122z"/>
          </g>
         </g>
         <g>
          <g>
           <path class="fil1 str0" d="M16041 18132l-253 777 -392 -131c-9,0 -1177,-384 -2322,-384 -1144,0 -2313,384 -2321,384 -8,0 -57,16 -131,41l0 -850c352,-106 1390,-393 2452,-393 1275,0 2526,409 2583,434l384 122z"/>
          </g>
         </g>
        </g>
       </g>
       <g id="Cloud_15_">
        <g>
         <path class="fil2 str0" d="M15494 11888c-180,-1178 -1194,-2077 -2420,-2077 -458,0 -899,131 -1283,368 -294,-482 -695,-883 -1169,-1160 -482,-278 -1046,-434 -1635,-434 -1806,0 -3269,1463 -3269,3270l0 33c-1161,196 -2071,1209 -2071,2419 0,1349 1131,2452 2480,2452l8991 0c1348,0 2479,-1103 2479,-2452 0,-1226 -926,-2240 -2103,-2419z"/>
        </g>
       </g>
       <path class="fil0 str0" d="M17597 14307c0,1349 -1131,2452 -2479,2452l-4496 0 0 -7740c474,277 875,678 1169,1160 384,-237 825,-368 1283,-368 1226,0 2240,899 2420,2077 1177,179 2103,1193 2103,2419l0 0z"/>
      </g>
      <g id="Fog_4_">
       <g>
        <g>
         <g>
          <path class="fil0 str0" d="M16041 19767l-253 777 -392 -131c-9,0 -1177,-384 -2322,-384 -1144,0 -2313,384 -2321,384 -8,0 -57,16 -131,41 -351,106 -1389,392 -2452,392 -1275,0 -2526,-409 -2583,-433l-384 -123 253 -776 393 130c8,0 1177,385 2321,385 1144,0 2313,-385 2321,-385 8,0 57,-16 131,-40 352,-107 1390,-393 2452,-393 1275,0 2526,409 2583,433l384 123z"/>
         </g>
        </g>
        <g>
         <g>
          <path class="fil1 str0" d="M16041 19767l-253 777 -392 -131c-9,0 -1177,-384 -2322,-384 -1144,0 -2313,384 -2321,384 -8,0 -57,16 -131,41l0 -850c352,-107 1390,-393 2452,-393 1275,0 2526,409 2583,433l384 123z"/>
         </g>
        </g>
       </g>
      </g>
     </g>
    </g>
   </g>
  </g>
  <polygon class="fil3" points="3298,7774 17702,7774 17702,21926 3298,21926 "/>
 </g>
</svg>
